<?xml version="1.0" encoding="utf-8"?>
<!-- Generator: Adobe Illustrator 24.1.3, SVG Export Plug-In . SVG Version: 6.00 Build 0)  -->
<svg version="1.1" id="Layer_1" xmlns="http://www.w3.org/2000/svg" xmlns:xlink="http://www.w3.org/1999/xlink" x="0px" y="0px"
	 viewBox="0 0 600 30" style="enable-background:new 0 0 600 30;" xml:space="preserve">
<g>
	<g>
		<g>
			<path d="M464.8,8.9c1.1,0.3,1.9,0.9,2.4,1.9s0.7,1.9,0.4,3c0,0.2,0,0.3,0.1,0.5s0.2,0.3,0.4,0.3c0.2,0.1,0.3,0,0.5-0.1
				s0.3-0.2,0.3-0.4c0.4-1.4,0.2-2.8-0.5-4s-1.8-2.1-3.2-2.5c-0.2,0-0.3,0-0.5,0.1s-0.3,0.2-0.3,0.4c0,0.2,0,0.3,0.1,0.5
				C464.5,8.7,464.6,8.8,464.8,8.9z"/>
			<path d="M471.6,11.7c-0.1-1-0.5-2-1-2.9s-1.2-1.7-2-2.3s-1.8-1.1-2.8-1.4c-0.2,0-0.3,0-0.5,0.1S465,5.4,465,5.6s0,0.3,0.1,0.5
				s0.2,0.3,0.4,0.3c0.9,0.2,1.6,0.6,2.3,1.1s1.3,1.2,1.7,1.9c0.4,0.8,0.7,1.6,0.8,2.4s0.1,1.7-0.2,2.6c0,0.2,0,0.3,0.1,0.5
				s0.2,0.3,0.4,0.3c0.2,0.1,0.3,0,0.5-0.1s0.3-0.2,0.3-0.4C471.7,13.7,471.8,12.7,471.6,11.7z"/>
			<path d="M464.1,11.4c0.4,0.1,0.6,0.3,0.8,0.6s0.2,0.6,0.1,1c0,0.2,0,0.3,0.1,0.5s0.2,0.3,0.4,0.3s0.3,0,0.5-0.1
				c0.1-0.1,0.2-0.2,0.3-0.4c0.2-0.7,0.1-1.4-0.3-2s-0.9-1-1.6-1.2c-0.2,0-0.3,0-0.5,0.1s-0.3,0.2-0.3,0.4s0,0.3,0.1,0.5
				C463.8,11.3,463.9,11.4,464.1,11.4z"/>
			<path d="M468.9,22.3c-0.2-0.2-0.5-0.5-0.8-0.8s-0.5-0.5-0.5-0.5s-0.1-0.1-0.2-0.2c-0.1-0.1-0.2-0.2-0.3-0.3s-0.2-0.1-0.2-0.1
				c-0.1,0-0.3,0-0.5,0.1c-0.1,0.1-0.3,0.2-0.6,0.4c-0.3,0.2-0.5,0.3-0.6,0.4c-0.2,0.1-0.4,0.2-0.5,0.1c-0.1,0-0.1,0-0.2-0.1
				c-0.1,0-0.1-0.1-0.2-0.1c0,0-0.1-0.1-0.2-0.2c-0.1-0.1-0.1-0.1-0.1-0.1c-0.7-0.6-1.2-1.3-1.6-2.1c-0.4-0.8-0.8-1.6-1-2.5
				c0,0,0-0.1-0.1-0.2c0-0.1,0-0.2-0.1-0.2c0-0.1,0-0.1,0-0.2s0-0.1,0-0.2c0-0.1,0.2-0.2,0.4-0.3c0.1-0.1,0.4-0.2,0.7-0.3
				s0.5-0.2,0.7-0.3s0.3-0.3,0.4-0.4c0-0.1,0-0.2,0-0.3s-0.1-0.2-0.1-0.4c-0.1-0.1-0.1-0.2-0.1-0.3s-0.1-0.3-0.2-0.7
				c-0.1-0.4-0.2-0.8-0.3-1.1s-0.1-0.5-0.2-0.6c-0.1-0.1-0.3-0.2-0.7-0.2s-0.7,0-0.9,0c-0.1,0-0.3,0.1-0.4,0.2
				c-0.2,0.1-0.5,0.3-0.8,0.7c-0.3,0.3-0.5,0.6-0.7,0.9c-0.2,0.3-0.3,0.6-0.3,1s-0.1,0.7,0,0.9c0,0.2,0,0.6,0.1,1.1
				c0,0.1,0,0.2,0,0.2c0.1,0.8,0.2,1.6,0.5,2.3s0.6,1.5,1.1,2.3s0.9,1.5,1.4,2.1s1.1,1.1,1.7,1.6c0.8,0.5,1.3,0.9,1.6,1
				c0.7,0.3,1.4,0.4,2.3,0.2h0.1c0.4-0.1,0.8-0.2,1-0.3c0.1-0.1,0.3-0.2,0.4-0.3c0.1-0.2,0.3-0.4,0.5-0.8s0.2-0.6,0.1-0.7
				C469.3,22.7,469.1,22.6,468.9,22.3z"/>
		</g>
	</g>
	<g>
		<path d="M34.3,22.3c-0.8-0.3-1.3-0.8-1.8-1.4c-0.4-0.6-0.6-1.3-0.6-2.1v-0.3c0-0.1,0-0.2,0.1-0.2c0,0,0.1-0.1,0.2-0.1H35
			c0.1,0,0.1,0,0.2,0.1c0,0,0.1,0.1,0.1,0.2v0.1c0,0.3,0.2,0.6,0.5,0.9c0.4,0.3,0.8,0.4,1.4,0.4c0.4,0,0.8-0.1,1-0.3
			c0.2-0.2,0.3-0.4,0.3-0.6c0-0.3-0.1-0.5-0.4-0.6c-0.2-0.1-0.7-0.3-1.3-0.5l-0.5-0.1c-1.2-0.4-2.2-0.8-3-1.4
			c-0.8-0.6-1.2-1.5-1.2-2.6c0-0.8,0.2-1.4,0.6-2s1-1,1.7-1.3c0.7-0.3,1.5-0.5,2.4-0.5c0.9,0,1.8,0.2,2.5,0.5
			c0.8,0.3,1.4,0.8,1.8,1.5c0.4,0.6,0.7,1.4,0.7,2.2v0.2c0,0.1,0,0.2-0.1,0.2c0,0-0.1,0.1-0.2,0.1h-2.8c-0.1,0-0.2,0-0.2-0.1
			s-0.1-0.1-0.1-0.2v0c0-0.4-0.2-0.7-0.5-1c-0.3-0.3-0.8-0.4-1.3-0.4c-0.4,0-0.7,0.1-0.9,0.2c-0.2,0.2-0.3,0.4-0.3,0.6
			c0,0.2,0.1,0.4,0.2,0.5c0.2,0.2,0.4,0.3,0.7,0.4c0.3,0.1,0.9,0.3,1.5,0.5c0.1,0,0.5,0.2,1.3,0.4c0.8,0.2,1.4,0.6,1.9,1.2
			c0.5,0.6,0.8,1.3,0.8,2.1c0,0.8-0.2,1.5-0.6,2.1c-0.4,0.6-1,1-1.7,1.3c-0.7,0.3-1.6,0.5-2.6,0.5C35.9,22.8,35,22.6,34.3,22.3z"/>
		<path d="M51.5,22.4L51.1,21c0,0-0.1-0.1-0.1-0.1h-3.8c0,0-0.1,0-0.1,0.1l-0.4,1.4c0,0.2-0.1,0.2-0.3,0.2h-3.1
			c-0.2,0-0.3-0.1-0.2-0.3l3.8-12.1c0-0.1,0.2-0.2,0.3-0.2H51c0.2,0,0.3,0.1,0.3,0.2l3.8,12.1c0,0,0,0.1,0,0.1
			c0,0.1-0.1,0.2-0.3,0.2h-3.1C51.6,22.6,51.5,22.5,51.5,22.4z M47.9,18.3h2.2c0.1,0,0.1,0,0.1-0.1l-1.2-4c0,0,0-0.1-0.1-0.1
			s0,0-0.1,0.1l-1.1,4C47.9,18.3,47.9,18.3,47.9,18.3z"/>
		<path d="M59.9,22.5c-0.1,0-0.1-0.1-0.1-0.2l-3.5-12.1c0,0,0-0.1,0-0.1c0-0.1,0.1-0.2,0.3-0.2h3.1c0.2,0,0.3,0.1,0.3,0.2l1.8,7.6
			c0,0,0,0.1,0.1,0.1s0,0,0.1-0.1l1.7-7.6c0-0.2,0.1-0.2,0.3-0.2h3c0.1,0,0.2,0,0.2,0.1c0,0.1,0.1,0.1,0,0.2l-3.6,12.1
			c0,0.1,0,0.1-0.1,0.2c-0.1,0-0.1,0.1-0.2,0.1h-3C60.1,22.6,60,22.6,59.9,22.5z"/>
		<path d="M77.6,12.8c0,0-0.1,0.1-0.2,0.1H72c-0.1,0-0.1,0-0.1,0.1v1.7c0,0.1,0,0.1,0.1,0.1h3.3c0.1,0,0.2,0,0.2,0.1
			s0.1,0.1,0.1,0.2v2.3c0,0.1,0,0.2-0.1,0.2c0,0-0.1,0.1-0.2,0.1H72c-0.1,0-0.1,0-0.1,0.1v1.9c0,0.1,0,0.1,0.1,0.1h5.4
			c0.1,0,0.1,0,0.2,0.1c0,0,0.1,0.1,0.1,0.2v2.4c0,0.1,0,0.2-0.1,0.2c0,0-0.1,0.1-0.2,0.1h-8.6c-0.1,0-0.2,0-0.2-0.1
			c0,0-0.1-0.1-0.1-0.2V10.3c0-0.1,0-0.1,0.1-0.2c0,0,0.1-0.1,0.2-0.1h8.6c0.1,0,0.1,0,0.2,0.1c0,0,0.1,0.1,0.1,0.2v2.4
			C77.7,12.7,77.6,12.8,77.6,12.8z"/>
		<path d="M85.4,22.2c-0.8-0.4-1.3-0.9-1.7-1.6c-0.4-0.7-0.6-1.5-0.6-2.4v-8c0-0.1,0-0.1,0.1-0.2c0,0,0.1-0.1,0.2-0.1h2.8
			c0.1,0,0.1,0,0.2,0.1c0,0,0.1,0.1,0.1,0.2v8c0,0.5,0.1,0.9,0.4,1.2c0.3,0.3,0.7,0.4,1.1,0.4c0.5,0,0.8-0.2,1.1-0.4
			c0.3-0.3,0.4-0.7,0.4-1.2v-8c0-0.1,0-0.1,0.1-0.2c0,0,0.1-0.1,0.2-0.1h2.8c0.1,0,0.1,0,0.2,0.1c0,0,0.1,0.1,0.1,0.2v8
			c0,0.9-0.2,1.7-0.6,2.4c-0.4,0.7-1,1.2-1.7,1.6c-0.7,0.4-1.6,0.6-2.6,0.6C87,22.8,86.1,22.6,85.4,22.2z"/>
		<path d="M102.3,10.5c0.6,0.3,1.1,0.8,1.5,1.5c0.4,0.6,0.5,1.4,0.5,2.2c0,0.8-0.2,1.5-0.6,2.1c-0.4,0.6-0.9,1.1-1.6,1.4
			s-1.4,0.5-2.3,0.5H98c-0.1,0-0.1,0-0.1,0.1v4.1c0,0.1,0,0.2-0.1,0.2c0,0-0.1,0.1-0.2,0.1h-2.8c-0.1,0-0.2,0-0.2-0.1
			c0,0-0.1-0.1-0.1-0.2V10.3c0-0.1,0-0.1,0.1-0.2c0,0,0.1-0.1,0.2-0.1h5.3C100.9,10,101.7,10.2,102.3,10.5z M100.6,15.1
			c0.3-0.2,0.4-0.5,0.4-0.9c0-0.4-0.1-0.7-0.4-1c-0.3-0.2-0.6-0.4-1.1-0.4H98c-0.1,0-0.1,0-0.1,0.1v2.4c0,0.1,0,0.1,0.1,0.1h1.5
			C100,15.5,100.3,15.4,100.6,15.1z"/>
		<path d="M119.3,10.1c0,0,0.1,0.1,0.1,0.2v2.4c0,0.1,0,0.2-0.1,0.2s-0.1,0.1-0.2,0.1h-3c-0.1,0-0.1,0-0.1,0.1v9.3
			c0,0.1,0,0.2-0.1,0.2c0,0-0.1,0.1-0.2,0.1h-2.8c-0.1,0-0.2,0-0.2-0.1c0,0-0.1-0.1-0.1-0.2V13c0-0.1,0-0.1-0.1-0.1h-2.9
			c-0.1,0-0.2,0-0.2-0.1s-0.1-0.1-0.1-0.2v-2.4c0-0.1,0-0.1,0.1-0.2c0,0,0.1-0.1,0.2-0.1h9.5C119.2,10,119.3,10,119.3,10.1z"/>
		<path d="M122.8,22.2c-0.8-0.4-1.4-1-1.8-1.7s-0.6-1.6-0.6-2.5v-3.4c0-0.9,0.2-1.8,0.6-2.5c0.4-0.7,1-1.3,1.8-1.7
			c0.8-0.4,1.6-0.6,2.6-0.6c1,0,1.9,0.2,2.7,0.6c0.8,0.4,1.4,1,1.8,1.7c0.4,0.7,0.6,1.5,0.6,2.5V18c0,1-0.2,1.8-0.6,2.5
			s-1,1.3-1.8,1.7c-0.8,0.4-1.6,0.6-2.7,0.6C124.4,22.8,123.5,22.6,122.8,22.2z M126.6,19.4c0.3-0.3,0.5-0.8,0.5-1.3v-3.5
			c0-0.6-0.2-1-0.5-1.3c-0.3-0.3-0.7-0.5-1.2-0.5c-0.5,0-0.9,0.2-1.2,0.5c-0.3,0.3-0.5,0.8-0.5,1.3v3.5c0,0.6,0.2,1,0.5,1.3
			c0.3,0.3,0.7,0.5,1.2,0.5C125.9,19.9,126.3,19.8,126.6,19.4z"/>
		<path d="M144.8,18.3c0,0.6-0.1,1.2-0.4,1.8c-0.3,0.8-0.9,1.4-1.6,1.9c-0.7,0.5-1.6,0.7-2.6,0.7c-1,0-1.8-0.2-2.6-0.7
			c-0.8-0.5-1.3-1.1-1.6-1.9c-0.2-0.4-0.3-1-0.4-1.6c0-0.2,0.1-0.3,0.3-0.3h2.9c0.2,0,0.3,0.1,0.3,0.3c0,0.3,0.1,0.6,0.2,0.8
			c0.2,0.3,0.5,0.5,0.9,0.5c0.4,0,0.7-0.2,0.9-0.5c0.2-0.3,0.3-0.7,0.3-1.1c0-0.4-0.1-0.8-0.3-1.1c-0.2-0.4-0.5-0.5-0.9-0.5
			c-0.1,0-0.3,0-0.5,0.1c-0.2,0.1-0.4,0.3-0.7,0.5c0,0-0.1,0.1-0.2,0.1c-0.1,0-0.2,0-0.2-0.1l-1.4-2c0-0.1-0.1-0.1-0.1-0.2
			c0-0.1,0-0.2,0.1-0.2L140,13c0,0,0,0,0-0.1c0,0,0,0-0.1,0h-3.6c-0.1,0-0.2,0-0.2-0.1c0,0-0.1-0.1-0.1-0.2v-2.4
			c0-0.1,0-0.1,0.1-0.2c0,0,0.1-0.1,0.2-0.1h8c0.1,0,0.1,0,0.2,0.1c0,0,0.1,0.1,0.1,0.2v2.6c0,0.2-0.1,0.3-0.2,0.3l-1.9,1.3
			c-0.1,0,0,0.1,0,0.1c0.9,0.3,1.5,0.9,1.9,1.8C144.7,17.1,144.8,17.7,144.8,18.3z"/>
		<path d="M147.5,21.6c-0.8-0.8-1.2-1.9-1.2-3.3v-4.1c0-1.4,0.4-2.4,1.2-3.2c0.8-0.8,1.9-1.2,3.4-1.2s2.6,0.4,3.4,1.2
			c0.8,0.8,1.2,1.9,1.2,3.2v4.1c0,1.4-0.4,2.5-1.2,3.3c-0.8,0.8-2,1.2-3.4,1.2S148.3,22.4,147.5,21.6z M151.7,19.6
			c0.2-0.2,0.3-0.6,0.3-1v-4.4c0-0.4-0.1-0.8-0.3-1s-0.5-0.4-0.9-0.4s-0.7,0.1-0.9,0.4s-0.3,0.6-0.3,1v4.4c0,0.4,0.1,0.8,0.3,1
			s0.5,0.4,0.9,0.4S151.5,19.8,151.7,19.6z"/>
		<path d="M158.6,15.5c-0.5-0.3-0.8-0.6-1.1-1.1c-0.3-0.5-0.4-1-0.4-1.5s0.1-1.1,0.4-1.5c0.3-0.5,0.6-0.8,1.1-1.1
			c0.5-0.3,1-0.4,1.5-0.4s1.1,0.1,1.5,0.4c0.5,0.3,0.8,0.6,1.1,1.1s0.4,1,0.4,1.5s-0.1,1.1-0.4,1.5c-0.3,0.5-0.6,0.8-1.1,1.1
			s-1,0.4-1.5,0.4S159.1,15.8,158.6,15.5z M160.9,13.7c0.2-0.2,0.3-0.5,0.3-0.8c0-0.3-0.1-0.6-0.3-0.8s-0.5-0.3-0.8-0.3
			s-0.6,0.1-0.8,0.3c-0.2,0.2-0.3,0.5-0.3,0.8c0,0.3,0.1,0.6,0.3,0.8s0.5,0.3,0.8,0.3C160.4,14,160.7,13.9,160.9,13.7z M159.1,22.4
			c0-0.1,0-0.1,0-0.1l6.7-12.1c0.1-0.1,0.2-0.2,0.3-0.2h1.8c0.1,0,0.1,0,0.2,0c0,0,0.1,0.1,0.1,0.1c0,0,0,0.1-0.1,0.2l-6.7,12.1
			c-0.1,0.1-0.2,0.2-0.3,0.2h-1.8C159.1,22.6,159.1,22.5,159.1,22.4z M165.8,22.3c-0.5-0.3-0.8-0.6-1.1-1.1c-0.3-0.5-0.4-1-0.4-1.5
			c0-0.6,0.1-1.1,0.4-1.5c0.3-0.5,0.6-0.8,1.1-1.1c0.5-0.3,1-0.4,1.5-0.4s1.1,0.1,1.5,0.4c0.5,0.3,0.8,0.6,1.1,1.1
			c0.3,0.5,0.4,1,0.4,1.5c0,0.6-0.1,1.1-0.4,1.5c-0.3,0.5-0.6,0.8-1.1,1.1c-0.5,0.3-1,0.4-1.5,0.4S166.3,22.6,165.8,22.3z
			 M168.1,20.5c0.2-0.2,0.3-0.5,0.3-0.8c0-0.3-0.1-0.6-0.3-0.8c-0.2-0.2-0.5-0.3-0.8-0.3s-0.6,0.1-0.8,0.3c-0.2,0.2-0.3,0.5-0.3,0.8
			c0,0.3,0.1,0.6,0.3,0.8s0.5,0.3,0.8,0.3C167.6,20.8,167.9,20.7,168.1,20.5z"/>
		<path d="M180.1,23.9V9.1c0-0.1,0.1-0.2,0.2-0.2h0.6c0.1,0,0.2,0.1,0.2,0.2v14.8c0,0.1-0.1,0.2-0.2,0.2h-0.6
			C180.2,24,180.1,24,180.1,23.9z"/>
		<path d="M193.5,22.3c-0.7-0.3-1.2-0.8-1.5-1.5c-0.4-0.6-0.5-1.4-0.5-2.2V14c0-0.8,0.2-1.5,0.5-2.2c0.4-0.6,0.9-1.1,1.5-1.4
			c0.7-0.3,1.4-0.5,2.3-0.5s1.6,0.2,2.3,0.5c0.7,0.3,1.2,0.8,1.5,1.4c0.4,0.6,0.5,1.3,0.5,2.1v0c0,0.1,0,0.1-0.1,0.1
			c0,0-0.1,0.1-0.1,0.1l-1.4,0.1c-0.1,0-0.2-0.1-0.2-0.2v-0.1c0-0.8-0.2-1.4-0.7-1.9c-0.5-0.5-1.1-0.7-1.9-0.7
			c-0.8,0-1.4,0.2-1.9,0.7c-0.5,0.5-0.7,1.1-0.7,1.9v4.8c0,0.8,0.2,1.4,0.7,1.9c0.5,0.5,1.1,0.7,1.9,0.7c0.8,0,1.4-0.2,1.9-0.7
			c0.5-0.5,0.7-1.1,0.7-1.9v0c0-0.1,0.1-0.2,0.2-0.2l1.4,0.1c0.1,0,0.2,0.1,0.2,0.2c0,0.8-0.2,1.5-0.5,2.1c-0.4,0.6-0.9,1.1-1.5,1.4
			c-0.7,0.3-1.4,0.5-2.3,0.5S194.2,22.6,193.5,22.3z"/>
		<path d="M211.2,11.5h-6.4c0,0-0.1,0-0.1,0.1v3.9c0,0,0,0.1,0.1,0.1h4.4c0.1,0,0.2,0.1,0.2,0.2v1.1c0,0.1-0.1,0.2-0.2,0.2h-4.4
			c0,0-0.1,0-0.1,0.1v4c0,0,0,0.1,0.1,0.1h6.4c0.1,0,0.2,0.1,0.2,0.2v1.1c0,0.1-0.1,0.2-0.2,0.2h-8c-0.1,0-0.2-0.1-0.2-0.2V10.2
			c0-0.1,0.1-0.2,0.2-0.2h8c0.1,0,0.2,0.1,0.2,0.2v1.1C211.4,11.4,211.4,11.5,211.2,11.5z"/>
		<path d="M214.2,22.4V10.2c0-0.1,0.1-0.2,0.2-0.2h1.4c0.1,0,0.2,0.1,0.2,0.2V21c0,0,0,0.1,0.1,0.1h6.2c0.1,0,0.2,0.1,0.2,0.2v1.1
			c0,0.1-0.1,0.2-0.2,0.2h-7.8C214.2,22.6,214.2,22.5,214.2,22.4z"/>
		<path d="M233,11.5h-6.4c0,0-0.1,0-0.1,0.1v3.9c0,0,0,0.1,0.1,0.1h4.4c0.1,0,0.2,0.1,0.2,0.2v1.1c0,0.1-0.1,0.2-0.2,0.2h-4.4
			c0,0-0.1,0-0.1,0.1v4c0,0,0,0.1,0.1,0.1h6.4c0.1,0,0.2,0.1,0.2,0.2v1.1c0,0.1-0.1,0.2-0.2,0.2h-8c-0.1,0-0.2-0.1-0.2-0.2V10.2
			c0-0.1,0.1-0.2,0.2-0.2h8c0.1,0,0.2,0.1,0.2,0.2v1.1C233.2,11.4,233.1,11.5,233,11.5z"/>
		<path d="M242.6,16.1c1.3,0.5,1.9,1.5,1.9,3c0,1.1-0.4,2-1.1,2.6c-0.7,0.6-1.7,0.9-2.9,0.9h-4.5c-0.1,0-0.2-0.1-0.2-0.2V10.2
			c0-0.1,0.1-0.2,0.2-0.2h4.3c1.2,0,2.2,0.3,2.9,0.9c0.7,0.6,1,1.4,1,2.5c0,1.3-0.6,2.2-1.7,2.7C242.6,16.1,242.6,16.1,242.6,16.1z
			 M237.6,11.6v3.8c0,0,0,0.1,0.1,0.1h2.7c0.7,0,1.2-0.2,1.6-0.5c0.4-0.3,0.6-0.8,0.6-1.4c0-0.6-0.2-1.1-0.6-1.5
			c-0.4-0.4-1-0.5-1.6-0.5L237.6,11.6C237.7,11.5,237.6,11.5,237.6,11.6z M242.2,20.5c0.4-0.4,0.6-0.9,0.6-1.5s-0.2-1.2-0.6-1.5
			c-0.4-0.4-1-0.6-1.7-0.6h-2.8c0,0-0.1,0-0.1,0.1V21c0,0,0,0.1,0.1,0.1h2.9C241.3,21.1,241.8,20.9,242.2,20.5z"/>
		<path d="M254.5,22.5l-2.5-5.4c0,0,0-0.1-0.1-0.1h-2.6c0,0-0.1,0-0.1,0.1v5.3c0,0.1-0.1,0.2-0.2,0.2h-1.4c-0.1,0-0.2-0.1-0.2-0.2
			V10.2c0-0.1,0.1-0.2,0.2-0.2h4.8c0.7,0,1.4,0.1,1.9,0.4c0.5,0.3,1,0.7,1.3,1.3c0.3,0.5,0.5,1.2,0.5,1.9c0,0.8-0.2,1.6-0.7,2.1
			c-0.4,0.6-1,1-1.8,1.2c0,0-0.1,0.1,0,0.1l2.6,5.4c0,0,0,0.1,0,0.1c0,0.1,0,0.1-0.1,0.1h-1.4C254.6,22.6,254.5,22.6,254.5,22.5z
			 M249.2,11.6v4c0,0,0,0.1,0.1,0.1h3c0.6,0,1.1-0.2,1.5-0.6s0.6-0.9,0.6-1.5c0-0.6-0.2-1.1-0.6-1.5c-0.4-0.4-0.9-0.6-1.5-0.6
			L249.2,11.6C249.3,11.5,249.2,11.5,249.2,11.6z"/>
		<path d="M266.9,22.5l-0.6-2.1c0,0,0-0.1-0.1-0.1h-5.1c0,0-0.1,0-0.1,0.1l-0.6,2.1c0,0.1-0.1,0.1-0.2,0.1h-1.5
			c-0.1,0-0.2-0.1-0.1-0.2l3.9-12.3c0-0.1,0.1-0.1,0.2-0.1h1.8c0.1,0,0.2,0,0.2,0.1l4,12.3l0,0.1c0,0.1-0.1,0.1-0.2,0.1h-1.5
			C267,22.6,266.9,22.6,266.9,22.5z M261.5,18.9C261.5,18.9,261.5,18.9,261.5,18.9l4.2,0c0,0,0,0,0.1,0c0,0,0,0,0-0.1l-2.1-6.7
			c0,0,0,0-0.1,0c0,0,0,0-0.1,0L261.5,18.9C261.4,18.9,261.4,18.9,261.5,18.9z"/>
		<path d="M278,10.2v1.2c0,0.1-0.1,0.2-0.2,0.2h-3.5c0,0-0.1,0-0.1,0.1v10.8c0,0.1-0.1,0.2-0.2,0.2h-1.4c-0.1,0-0.2-0.1-0.2-0.2
			V11.6c0,0,0-0.1-0.1-0.1h-3.3c-0.1,0-0.2-0.1-0.2-0.2v-1.2c0-0.1,0.1-0.2,0.2-0.2h8.6C278,10,278,10.1,278,10.2z"/>
		<path d="M280.5,22.4V10.2c0-0.1,0.1-0.2,0.2-0.2h1.4c0.1,0,0.2,0.1,0.2,0.2v12.2c0,0.1-0.1,0.2-0.2,0.2h-1.4
			C280.6,22.6,280.5,22.5,280.5,22.4z"/>
		<path d="M293.1,10h1.4c0.1,0,0.2,0.1,0.2,0.2v12.2c0,0.1-0.1,0.2-0.2,0.2h-1.3c-0.1,0-0.2,0-0.2-0.1l-5.6-9.2c0,0,0-0.1-0.1,0
			c0,0,0,0,0,0.1l0,9.1c0,0.1-0.1,0.2-0.2,0.2h-1.4c-0.1,0-0.2-0.1-0.2-0.2V10.2c0-0.1,0.1-0.2,0.2-0.2h1.3c0.1,0,0.2,0,0.2,0.1
			l5.6,9.2c0,0,0,0.1,0.1,0s0,0,0-0.1l0-9.1C293,10.1,293,10,293.1,10z"/>
		<path d="M299.8,22.2c-0.7-0.3-1.2-0.8-1.5-1.5c-0.4-0.6-0.5-1.4-0.5-2.2V14c0-0.8,0.2-1.6,0.5-2.2c0.4-0.6,0.9-1.1,1.5-1.4
			c0.7-0.3,1.4-0.5,2.3-0.5s1.6,0.2,2.3,0.5c0.7,0.3,1.2,0.8,1.5,1.4c0.4,0.6,0.5,1.3,0.5,2V14c0,0.1-0.1,0.2-0.2,0.2h-1.4
			c-0.1,0-0.2-0.1-0.2-0.2v-0.2c0-0.7-0.2-1.3-0.7-1.8c-0.5-0.5-1.1-0.7-1.9-0.7c-0.8,0-1.4,0.2-1.9,0.7c-0.5,0.5-0.7,1.1-0.7,1.9
			v4.7c0,0.8,0.3,1.4,0.8,1.9c0.5,0.5,1.2,0.7,2,0.7c0.8,0,1.4-0.2,1.9-0.6s0.7-1,0.7-1.7v-1.4c0,0,0-0.1-0.1-0.1h-2.4
			c-0.1,0-0.2-0.1-0.2-0.2v-1.1c0-0.1,0.1-0.2,0.2-0.2h4.1c0.1,0,0.2,0.1,0.2,0.2v2.3c0,1.4-0.4,2.4-1.2,3.2
			c-0.8,0.7-1.9,1.1-3.2,1.1C301.2,22.8,300.4,22.6,299.8,22.2z"/>
		<path d="M320.8,22.5l-0.6-2.1c0,0,0-0.1-0.1-0.1H315c0,0-0.1,0-0.1,0.1l-0.6,2.1c0,0.1-0.1,0.1-0.2,0.1h-1.5
			c-0.1,0-0.2-0.1-0.1-0.2l3.9-12.3c0-0.1,0.1-0.1,0.2-0.1h1.8c0.1,0,0.2,0,0.2,0.1l4,12.3l0,0.1c0,0.1-0.1,0.1-0.2,0.1H321
			C320.9,22.6,320.9,22.6,320.8,22.5z M315.4,18.9C315.4,18.9,315.5,18.9,315.4,18.9l4.2,0c0,0,0,0,0.1,0c0,0,0,0,0-0.1l-2.1-6.7
			c0,0,0,0-0.1,0c0,0,0,0-0.1,0L315.4,18.9C315.4,18.9,315.4,18.9,315.4,18.9z"/>
		<path d="M325.1,22.4V10.2c0-0.1,0.1-0.2,0.2-0.2h1.4c0.1,0,0.2,0.1,0.2,0.2V21c0,0,0,0.1,0.1,0.1h6.2c0.1,0,0.2,0.1,0.2,0.2v1.1
			c0,0.1-0.1,0.2-0.2,0.2h-7.8C325.1,22.6,325.1,22.5,325.1,22.4z"/>
		<path d="M335.7,22.4V10.2c0-0.1,0.1-0.2,0.2-0.2h1.4c0.1,0,0.2,0.1,0.2,0.2V21c0,0,0,0.1,0.1,0.1h6.2c0.1,0,0.2,0.1,0.2,0.2v1.1
			c0,0.1-0.1,0.2-0.2,0.2h-7.8C335.8,22.6,335.7,22.5,335.7,22.4z"/>
		<path d="M358.5,10.2v1.2c0,0.1-0.1,0.2-0.2,0.2h-3.5c0,0-0.1,0-0.1,0.1v10.8c0,0.1-0.1,0.2-0.2,0.2h-1.4c-0.1,0-0.2-0.1-0.2-0.2
			V11.6c0,0,0-0.1-0.1-0.1h-3.3c-0.1,0-0.2-0.1-0.2-0.2v-1.2c0-0.1,0.1-0.2,0.2-0.2h8.6C358.4,10,358.5,10.1,358.5,10.2z"/>
		<path d="M368.2,10h1.4c0.1,0,0.2,0.1,0.2,0.2v12.2c0,0.1-0.1,0.2-0.2,0.2h-1.4c-0.1,0-0.2-0.1-0.2-0.2v-5.3c0,0,0-0.1-0.1-0.1
			h-5.1c0,0-0.1,0-0.1,0.1v5.3c0,0.1-0.1,0.2-0.2,0.2h-1.4c-0.1,0-0.2-0.1-0.2-0.2V10.2c0-0.1,0.1-0.2,0.2-0.2h1.4
			c0.1,0,0.2,0.1,0.2,0.2v5.3c0,0,0,0.1,0.1,0.1h5.1c0,0,0.1,0,0.1-0.1v-5.3C368,10.1,368,10,368.2,10z"/>
		<path d="M372.9,22.4V10.2c0-0.1,0.1-0.2,0.2-0.2h1.4c0.1,0,0.2,0.1,0.2,0.2v12.2c0,0.1-0.1,0.2-0.2,0.2h-1.4
			C373,22.6,372.9,22.5,372.9,22.4z"/>
		<path d="M385.6,10h1.4c0.1,0,0.2,0.1,0.2,0.2v12.2c0,0.1-0.1,0.2-0.2,0.2h-1.3c-0.1,0-0.2,0-0.2-0.1l-5.6-9.2c0,0,0-0.1-0.1,0
			c0,0,0,0,0,0.1l0,9.1c0,0.1-0.1,0.2-0.2,0.2h-1.4c-0.1,0-0.2-0.1-0.2-0.2V10.2c0-0.1,0.1-0.2,0.2-0.2h1.3c0.1,0,0.2,0,0.2,0.1
			l5.6,9.2c0,0,0,0.1,0.1,0s0,0,0-0.1l0-9.1C385.4,10.1,385.5,10,385.6,10z"/>
		<path d="M392.2,22.2c-0.7-0.3-1.2-0.8-1.5-1.5c-0.4-0.6-0.5-1.4-0.5-2.2V14c0-0.8,0.2-1.6,0.5-2.2c0.4-0.6,0.9-1.1,1.5-1.4
			c0.7-0.3,1.4-0.5,2.3-0.5s1.6,0.2,2.3,0.5c0.7,0.3,1.2,0.8,1.5,1.4c0.4,0.6,0.5,1.3,0.5,2V14c0,0.1-0.1,0.2-0.2,0.2h-1.4
			c-0.1,0-0.2-0.1-0.2-0.2v-0.2c0-0.7-0.2-1.3-0.7-1.8c-0.5-0.5-1.1-0.7-1.9-0.7c-0.8,0-1.4,0.2-1.9,0.7c-0.5,0.5-0.7,1.1-0.7,1.9
			v4.7c0,0.8,0.3,1.4,0.8,1.9c0.5,0.5,1.2,0.7,2,0.7c0.8,0,1.4-0.2,1.9-0.6s0.7-1,0.7-1.7v-1.4c0,0,0-0.1-0.1-0.1h-2.4
			c-0.1,0-0.2-0.1-0.2-0.2v-1.1c0-0.1,0.1-0.2,0.2-0.2h4.1c0.1,0,0.2,0.1,0.2,0.2v2.3c0,1.4-0.4,2.4-1.2,3.2
			c-0.8,0.7-1.9,1.1-3.2,1.1C393.6,22.8,392.9,22.6,392.2,22.2z"/>
		<path d="M403.3,22.3c-0.7-0.3-1.2-0.7-1.6-1.2c-0.4-0.5-0.5-1.1-0.5-1.9v-0.5c0-0.1,0.1-0.2,0.2-0.2h1.3c0.1,0,0.2,0.1,0.2,0.2
			v0.4c0,0.6,0.3,1.1,0.8,1.5s1.3,0.6,2.2,0.6c0.8,0,1.5-0.2,1.9-0.5s0.6-0.8,0.6-1.4c0-0.4-0.1-0.7-0.3-1s-0.5-0.5-0.9-0.7
			c-0.4-0.2-1-0.5-1.8-0.8c-0.9-0.3-1.6-0.6-2.1-0.9c-0.5-0.3-0.9-0.6-1.3-1.1c-0.3-0.4-0.5-1-0.5-1.7c0-1,0.4-1.8,1.1-2.4
			c0.7-0.6,1.7-0.9,3-0.9c0.9,0,1.7,0.2,2.3,0.5s1.2,0.7,1.6,1.3s0.5,1.2,0.5,1.9v0.4c0,0.1-0.1,0.2-0.2,0.2h-1.3
			c-0.1,0-0.2-0.1-0.2-0.2v-0.3c0-0.6-0.2-1.1-0.7-1.6s-1.2-0.6-2.1-0.6c-0.7,0-1.3,0.2-1.7,0.5c-0.4,0.3-0.6,0.7-0.6,1.3
			c0,0.4,0.1,0.7,0.3,1s0.5,0.5,0.9,0.7c0.4,0.2,1,0.5,1.8,0.8c0.9,0.3,1.5,0.6,2.1,0.9c0.5,0.3,1,0.7,1.3,1.1
			c0.3,0.5,0.5,1,0.5,1.7c0,1.1-0.4,1.9-1.2,2.5c-0.8,0.6-1.8,0.9-3.2,0.9C404.8,22.8,404,22.6,403.3,22.3z"/>
		<path d="M416.8,22.4V10.2c0-0.1,0.1-0.2,0.2-0.2h4.4c1.2,0,2.2,0.3,3,1c0.7,0.7,1.1,1.5,1.1,2.6V19c0,1.1-0.4,2-1.1,2.6
			s-1.7,1-3,1h-4.4C416.8,22.6,416.8,22.5,416.8,22.4z M418.6,21.1h2.8c0.7,0,1.3-0.2,1.7-0.6s0.6-1,0.6-1.7v-4.9
			c0-0.7-0.2-1.3-0.6-1.7s-1-0.6-1.7-0.6h-2.8c0,0-0.1,0-0.1,0.1L418.6,21.1C418.5,21.1,418.5,21.1,418.6,21.1z"/>
		<path d="M435.1,22.5l-0.6-2.1c0,0,0-0.1-0.1-0.1h-5.1c0,0-0.1,0-0.1,0.1l-0.6,2.1c0,0.1-0.1,0.1-0.2,0.1H427
			c-0.1,0-0.2-0.1-0.1-0.2l3.9-12.3c0-0.1,0.1-0.1,0.2-0.1h1.8c0.1,0,0.2,0,0.2,0.1l4,12.3l0,0.1c0,0.1-0.1,0.1-0.2,0.1h-1.5
			C435.3,22.6,435.2,22.6,435.1,22.5z M429.8,18.9C429.8,18.9,429.8,18.9,429.8,18.9l4.2,0c0,0,0,0,0.1,0c0,0,0,0,0-0.1l-2.1-6.7
			c0,0,0,0-0.1,0c0,0,0,0-0.1,0L429.8,18.9C429.7,18.9,429.7,18.9,429.8,18.9z"/>
		<path d="M439.4,22.4V10.2c0-0.1,0.1-0.2,0.2-0.2h4.4c1.2,0,2.2,0.3,3,1c0.7,0.7,1.1,1.5,1.1,2.6V19c0,1.1-0.4,2-1.1,2.6
			s-1.7,1-3,1h-4.4C439.5,22.6,439.4,22.5,439.4,22.4z M441.2,21.1h2.8c0.7,0,1.3-0.2,1.7-0.6s0.6-1,0.6-1.7v-4.9
			c0-0.7-0.2-1.3-0.6-1.7s-1-0.6-1.7-0.6h-2.8c0,0-0.1,0-0.1,0.1L441.2,21.1C441.1,21.1,441.2,21.1,441.2,21.1z"/>
	</g>
	<g>
		<g>
			<path d="M481.7,22.2c-0.8-0.4-1.3-0.9-1.7-1.6s-0.6-1.5-0.6-2.4v-3.6c0-0.9,0.2-1.7,0.6-2.4s1-1.2,1.7-1.6s1.6-0.6,2.6-0.6
				c1,0,1.9,0.2,2.6,0.5s1.3,0.9,1.7,1.5c0.4,0.7,0.6,1.4,0.6,2.3c0,0.1-0.1,0.2-0.3,0.2l-2.8,0.2h-0.1c-0.1,0-0.2-0.1-0.2-0.2
				c0-0.5-0.1-0.9-0.4-1.2c-0.3-0.3-0.7-0.4-1.2-0.4c-0.5,0-0.9,0.1-1.2,0.4c-0.3,0.3-0.4,0.7-0.4,1.2v3.9c0,0.5,0.1,0.9,0.4,1.2
				c0.3,0.3,0.7,0.4,1.2,0.4c0.5,0,0.9-0.1,1.2-0.4c0.3-0.3,0.4-0.7,0.4-1.2c0-0.1,0-0.1,0.1-0.2s0.1,0,0.2,0l2.8,0.1
				c0.2,0,0.3,0.1,0.3,0.2c0,0.9-0.2,1.6-0.6,2.3s-1,1.2-1.7,1.5s-1.6,0.5-2.6,0.5C483.3,22.8,482.5,22.6,481.7,22.2z"/>
			<path d="M498.5,22.4l-0.4-1.4c0,0-0.1-0.1-0.1-0.1h-3.8c0,0-0.1,0-0.1,0.1l-0.4,1.4c0,0.2-0.1,0.2-0.3,0.2h-3.1
				c-0.2,0-0.3-0.1-0.2-0.3l3.8-12.1c0-0.1,0.1-0.2,0.3-0.2h3.8c0.2,0,0.3,0.1,0.3,0.2l3.8,12.1c0,0,0,0.1,0,0.1
				c0,0.1-0.1,0.2-0.3,0.2h-3.1C498.6,22.6,498.5,22.5,498.5,22.4z M495,18.3h2.2c0.1,0,0.1,0,0.1-0.1l-1.2-4c0,0,0-0.1-0.1-0.1
				c0,0,0,0-0.1,0.1l-1.1,4C494.9,18.3,494.9,18.3,495,18.3z"/>
			<path d="M503.7,22.5c0,0-0.1-0.1-0.1-0.2V10.3c0-0.1,0-0.1,0.1-0.2c0,0,0.1-0.1,0.2-0.1h2.8c0.1,0,0.2,0,0.2,0.1
				c0,0,0.1,0.1,0.1,0.2v9.3c0,0.1,0,0.1,0.1,0.1h5.6c0.1,0,0.2,0,0.2,0.1c0,0,0.1,0.1,0.1,0.2v2.4c0,0.1,0,0.2-0.1,0.2
				c0,0-0.1,0.1-0.2,0.1h-8.8C503.8,22.6,503.7,22.6,503.7,22.5z"/>
			<path d="M514.4,22.5c0,0-0.1-0.1-0.1-0.2V10.3c0-0.1,0-0.1,0.1-0.2c0,0,0.1-0.1,0.2-0.1h2.8c0.1,0,0.1,0,0.2,0.1
				c0,0,0.1,0.1,0.1,0.2v9.3c0,0.1,0,0.1,0.1,0.1h5.6c0.1,0,0.1,0,0.2,0.1c0,0,0.1,0.1,0.1,0.2v2.4c0,0.1,0,0.2-0.1,0.2
				c0,0-0.1,0.1-0.2,0.1h-8.8C514.5,22.6,514.4,22.6,514.4,22.5z"/>
			<path d="M536.1,10.1c0,0,0.1-0.1,0.2-0.1h2.8c0.1,0,0.1,0,0.2,0.1c0,0,0.1,0.1,0.1,0.2v12.1c0,0.1,0,0.2-0.1,0.2
				c0,0-0.1,0.1-0.2,0.1h-2.7c-0.1,0-0.3-0.1-0.3-0.2l-3.7-6.1c0,0,0-0.1-0.1,0c0,0,0,0,0,0.1l0,6c0,0.1,0,0.2-0.1,0.2
				c0,0-0.1,0.1-0.2,0.1h-2.8c-0.1,0-0.2,0-0.2-0.1c0,0-0.1-0.1-0.1-0.2V10.3c0-0.1,0-0.1,0.1-0.2c0,0,0.1-0.1,0.2-0.1h2.7
				c0.1,0,0.3,0.1,0.3,0.2l3.7,6.1c0,0,0,0.1,0.1,0c0,0,0,0,0-0.1l0-6C536,10.2,536,10.1,536.1,10.1z"/>
			<path d="M543.4,22.2c-0.8-0.4-1.4-1-1.8-1.7S541,19,541,18v-3.4c0-0.9,0.2-1.8,0.6-2.5c0.4-0.7,1-1.3,1.8-1.7
				c0.8-0.4,1.6-0.6,2.6-0.6c1,0,1.9,0.2,2.7,0.6c0.8,0.4,1.4,1,1.8,1.7c0.4,0.7,0.6,1.5,0.6,2.5V18c0,1-0.2,1.8-0.6,2.5
				s-1,1.3-1.8,1.7c-0.8,0.4-1.6,0.6-2.7,0.6C545,22.8,544.1,22.6,543.4,22.2z M547.2,19.4c0.3-0.3,0.5-0.8,0.5-1.3v-3.5
				c0-0.6-0.2-1-0.5-1.3c-0.3-0.3-0.7-0.5-1.2-0.5c-0.5,0-0.9,0.2-1.2,0.5c-0.3,0.3-0.5,0.8-0.5,1.3v3.5c0,0.6,0.2,1,0.5,1.3
				c0.3,0.3,0.7,0.5,1.2,0.5C546.5,19.9,546.9,19.8,547.2,19.4z"/>
			<path d="M555.7,22.5c-0.1,0-0.1-0.1-0.1-0.2L552,10.3c0,0,0-0.1,0-0.1c0-0.1,0.1-0.2,0.3-0.2h3.1c0.2,0,0.3,0.1,0.3,0.2l1.5,5.9
				c0,0,0,0.1,0.1,0.1c0,0,0,0,0.1-0.1l1.2-5.9c0-0.2,0.1-0.2,0.3-0.2h2.6c0.2,0,0.3,0.1,0.3,0.2l1.4,5.9c0,0,0,0.1,0.1,0.1
				c0,0,0,0,0.1-0.1l1.4-5.9c0-0.2,0.1-0.2,0.3-0.2h3.1c0.1,0,0.2,0,0.2,0.1c0,0.1,0.1,0.1,0,0.2l-3.2,12.1c0,0.2-0.1,0.2-0.3,0.2
				h-2.9c-0.2,0-0.3-0.1-0.3-0.2l-1.3-6.2c0,0,0-0.1-0.1-0.1c0,0,0,0-0.1,0.1l-1.1,6.2c0,0.2-0.1,0.3-0.3,0.3h-2.7
				C555.8,22.6,555.8,22.6,555.7,22.5z"/>
		</g>
	</g>
</g>
</svg>
