<?xml version="1.0" encoding="utf-8"?>
<!-- Generator: Adobe Illustrator 24.2.0, SVG Export Plug-In . SVG Version: 6.00 Build 0)  -->
<svg version="1.1" id="Layer_1" xmlns="http://www.w3.org/2000/svg" xmlns:xlink="http://www.w3.org/1999/xlink" x="0px" y="0px"
	 viewBox="0 0 800 30" style="enable-background:new 0 0 800 30;" xml:space="preserve">
<g>
	<g>
		<path d="M115.9,10.5h7c1.7,0,2.5,0.8,2.5,2.5v1.5c0,1.1-0.3,1.8-1.3,2.1c1.1,0.3,1.4,1.1,1.4,2.1v1.8c0,1.7-0.8,2.5-2.5,2.5h-7.1
			V10.5z M122,15.5c0.3,0,0.3-0.1,0.3-0.3v-1.8c0-0.3-0.1-0.3-0.3-0.3h-3.1v2.5H122z M122.1,20.6c0.3,0,0.3-0.1,0.3-0.3v-2.1
			c0-0.3-0.1-0.3-0.3-0.3h-3.3v2.8H122.1z"/>
		<path d="M127.4,20.6V10.5h3v9.6c0,0.2,0.1,0.3,0.3,0.3h2.9c0.3,0,0.3-0.1,0.3-0.3v-9.6h3v10.1c0,1.6-0.8,2.5-2.5,2.5h-4.6
			C128.3,23.1,127.4,22.3,127.4,20.6z"/>
		<path d="M139.4,10.5h3v12.6h-3V10.5z"/>
		<path d="M144.9,10.5h3v10h5.2v2.6h-8.2V10.5z"/>
		<path d="M154.9,10.5h7.2c1.7,0,2.5,0.8,2.5,2.5v7.6c0,1.7-0.8,2.5-2.5,2.5h-7.2V10.5z M161.2,20.5c0.3,0,0.3-0.1,0.3-0.3v-6.7
			c0-0.3-0.1-0.3-0.3-0.3h-3.4v7.4H161.2z"/>
		<path d="M173.8,19l-4.1-8.5h3.2l2.3,5.5l2.3-5.5h3.2l-4.1,8.5v4.1h-3V19z"/>
		<path d="M181.6,20.6V13c0-1.7,0.8-2.5,2.5-2.5h4.8c1.7,0,2.5,0.8,2.5,2.5v7.6c0,1.7-0.8,2.5-2.5,2.5h-4.8
			C182.4,23.1,181.6,22.3,181.6,20.6z M188.1,20.5c0.3,0,0.3-0.1,0.3-0.3v-6.7c0-0.3-0.1-0.3-0.3-0.3h-3.2c-0.3,0-0.3,0.1-0.3,0.3
			v6.7c0,0.3,0.1,0.3,0.3,0.3H188.1z"/>
		<path d="M193.6,20.6V10.5h3v9.6c0,0.2,0.1,0.3,0.3,0.3h2.9c0.3,0,0.3-0.1,0.3-0.3v-9.6h3v10.1c0,1.6-0.8,2.5-2.5,2.5h-4.6
			C194.5,23.1,193.6,22.3,193.6,20.6z"/>
		<path d="M215.6,23.1h-3.1l-2.1-4.3h-1.7v4.3h-3V10.5h7c1.7,0,2.5,0.8,2.5,2.5v3.2c0,1.4-0.6,2.2-1.7,2.4L215.6,23.1z M211.8,16.3
			c0.3,0,0.3-0.1,0.3-0.3v-2.6c0-0.3-0.1-0.3-0.3-0.3h-3.2v3.2H211.8z"/>
		<path d="M221.7,10.5h7c1.7,0,2.5,0.8,2.5,2.5v3.6c0,1.7-0.8,2.5-2.5,2.5h-4v4.1h-3V10.5z M227.9,16.5c0.3,0,0.3-0.1,0.3-0.3v-2.7
			c0-0.3-0.1-0.3-0.3-0.3h-3.2v3.4H227.9z"/>
		<path d="M232.9,10.5h8.7v2.6h-5.7v2.3h4.6V18h-4.6v2.6h5.7v2.6h-8.7V10.5z"/>
		<path d="M253.6,23.1h-3.1l-2.1-4.3h-1.7v4.3h-3V10.5h7c1.7,0,2.5,0.8,2.5,2.5v3.2c0,1.4-0.6,2.2-1.7,2.4L253.6,23.1z M249.8,16.3
			c0.3,0,0.3-0.1,0.3-0.3v-2.6c0-0.3-0.1-0.3-0.3-0.3h-3.2v3.2H249.8z"/>
		<path d="M255.4,10.5h8.7v2.6h-5.7v2.4h4.6v2.6h-4.6v5h-3V10.5z"/>
		<path d="M265.8,10.5h8.7v2.6h-5.7v2.3h4.6V18h-4.6v2.6h5.7v2.6h-8.7V10.5z"/>
		<path d="M276.1,20.6V13c0-1.7,0.8-2.5,2.5-2.5h4.5c1.7,0,2.5,0.8,2.5,2.5v2.2h-3v-1.7c0-0.3-0.1-0.3-0.3-0.3h-2.8
			c-0.3,0-0.3,0.1-0.3,0.3v6.7c0,0.3,0.1,0.3,0.3,0.3h2.8c0.3,0,0.3-0.1,0.3-0.3v-1.8h3v2.2c0,1.7-0.8,2.5-2.5,2.5h-4.5
			C277,23.1,276.1,22.3,276.1,20.6z"/>
		<path d="M289.9,13.1h-3.3v-2.6h9.6v2.6h-3.3v10h-3V13.1z"/>
		<path d="M301.3,20.6V19h3v1.3c0,0.3,0.1,0.3,0.3,0.3h2.8c0.3,0,0.3-0.1,0.3-0.3v-1.3c0-0.3-0.1-0.4-0.5-0.5l-3.3-0.8
			c-1.7-0.4-2.6-0.9-2.6-2.6V13c0-1.7,0.8-2.5,2.5-2.5h4.2c1.7,0,2.5,0.8,2.5,2.5v1.5h-3v-1.1c0-0.3-0.1-0.3-0.3-0.3h-2.6
			c-0.3,0-0.3,0.1-0.3,0.3v1.2c0,0.3,0.1,0.4,0.5,0.5l3.3,0.8c1.7,0.4,2.6,0.9,2.6,2.6v2.2c0,1.7-0.8,2.5-2.5,2.5h-4.5
			C302.2,23.1,301.3,22.3,301.3,20.6z"/>
		<path d="M312.9,20.6V10.5h3v9.6c0,0.2,0.1,0.3,0.3,0.3h2.9c0.3,0,0.3-0.1,0.3-0.3v-9.6h3v10.1c0,1.6-0.8,2.5-2.5,2.5h-4.6
			C313.7,23.1,312.9,22.3,312.9,20.6z"/>
		<path d="M324.9,10.5h3.3l3.1,7l3.1-7h3.3v12.6h-2.9v-7.7l-2.5,6h-2l-2.5-6v7.7h-2.8V10.5z"/>
		<path d="M340.2,10.5h3.3l3.1,7l3.1-7h3.3v12.6h-2.9v-7.7l-2.5,6h-2l-2.5-6v7.7h-2.8V10.5z"/>
		<path d="M355.6,10.5h8.7v2.6h-5.7v2.3h4.6V18h-4.6v2.6h5.7v2.6h-8.7V10.5z"/>
		<path d="M376.2,23.1h-3.1l-2.1-4.3h-1.7v4.3h-3V10.5h7c1.7,0,2.5,0.8,2.5,2.5v3.2c0,1.4-0.6,2.2-1.7,2.4L376.2,23.1z M372.4,16.3
			c0.3,0,0.3-0.1,0.3-0.3v-2.6c0-0.3-0.1-0.3-0.3-0.3h-3.2v3.2H372.4z"/>
		<path d="M384.4,13.1h-3.3v-2.6h9.6v2.6h-3.3v10h-3V13.1z"/>
		<path d="M402.2,23.1h-3.1l-2.1-4.3h-1.7v4.3h-3V10.5h7c1.7,0,2.5,0.8,2.5,2.5v3.2c0,1.4-0.6,2.2-1.7,2.4L402.2,23.1z M398.5,16.3
			c0.3,0,0.3-0.1,0.3-0.3v-2.6c0-0.3-0.1-0.3-0.3-0.3h-3.2v3.2H398.5z"/>
		<path d="M403.9,20.6V10.5h3v9.6c0,0.2,0.1,0.3,0.3,0.3h2.9c0.3,0,0.3-0.1,0.3-0.3v-9.6h3v10.1c0,1.6-0.8,2.5-2.5,2.5h-4.6
			C404.8,23.1,403.9,22.3,403.9,20.6z"/>
		<path d="M415.7,20.6V13c0-1.7,0.8-2.5,2.5-2.5h4.5c1.7,0,2.5,0.8,2.5,2.5v2.2h-3v-1.7c0-0.3-0.1-0.3-0.3-0.3h-2.8
			c-0.3,0-0.3,0.1-0.3,0.3v6.7c0,0.3,0.1,0.3,0.3,0.3h2.8c0.3,0,0.3-0.1,0.3-0.3v-1.8h3v2.2c0,1.7-0.8,2.5-2.5,2.5h-4.5
			C416.5,23.1,415.7,22.3,415.7,20.6z"/>
		<path d="M434.5,23.1l-2.6-5.2l-1.8,2.4v2.8h-2.9V10.5h2.9v5.8l4.1-5.8h3.4l-3.7,4.9l3.9,7.7H434.5z"/>
		<path d="M442.2,10.5h3l1.7,8.9l2.2-8.9h2.7l2.2,8.9l1.7-8.9h2.9l-3,12.6h-3.1l-1.9-8l-2,8h-3.2L442.2,10.5z"/>
		<path d="M460,10.5h3v12.6h-3V10.5z"/>
		<path d="M467.9,13.1h-3.3v-2.6h9.6v2.6h-3.3v10h-3V13.1z"/>
		<path d="M475.8,10.5h3v4.8h4.1v-4.8h3v12.6h-3V18h-4.1v5.1h-3V10.5z"/>
		<path d="M492.5,20.6V13c0-1.7,0.8-2.5,2.5-2.5h4.6c1.7,0,2.5,0.8,2.5,2.5v7.6c0,1.7-0.8,2.5-2.5,2.5H495
			C493.3,23.1,492.5,22.3,492.5,20.6z M498.7,20.5c0.3,0,0.3-0.1,0.3-0.3v-6.7c0-0.3-0.1-0.3-0.3-0.3h-2.9c-0.3,0-0.3,0.1-0.3,0.3
			v6.7c0,0.3,0.1,0.3,0.3,0.3H498.7z"/>
		<path d="M503.7,14.2v-2.4c0-0.9,0.3-1.3,1.3-1.3h1.7c0.9,0,1.3,0.3,1.3,1.3v2.4c0,0.9-0.3,1.3-1.3,1.3H505
			C504.1,15.5,503.7,15.1,503.7,14.2z M510.4,10.5h2.4l-5.7,12.6h-2.4L510.4,10.5z M506.2,14.2c0.2,0,0.3-0.1,0.3-0.3v-1.9
			c0-0.2-0.1-0.3-0.3-0.3h-0.8c-0.2,0-0.3,0.1-0.3,0.3v1.9c0,0.2,0.1,0.3,0.3,0.3H506.2z M509.7,21.9v-2.4c0-0.9,0.3-1.3,1.3-1.3
			h1.7c0.9,0,1.3,0.3,1.3,1.3v2.4c0,0.9-0.3,1.3-1.3,1.3h-1.7C510,23.1,509.7,22.8,509.7,21.9z M512.2,21.8c0.2,0,0.3-0.1,0.3-0.3
			v-1.9c0-0.2-0.1-0.3-0.3-0.3h-0.8c-0.2,0-0.3,0.1-0.3,0.3v1.9c0,0.2,0.1,0.3,0.3,0.3H512.2z"/>
		<path d="M526.5,20.5h-4l-0.7,2.7h-3.1l3.8-12.6h4.1l3.8,12.6h-3.2L526.5,20.5z M525.8,17.9l-1.3-4.9l-1.3,4.9H525.8z"/>
		<path d="M531.9,10.5h7c1.7,0,2.5,0.8,2.5,2.5v3.6c0,1.7-0.8,2.5-2.5,2.5h-4v4.1h-3V10.5z M538,16.5c0.3,0,0.3-0.1,0.3-0.3v-2.7
			c0-0.3-0.1-0.3-0.3-0.3h-3.2v3.4H538z"/>
		<path d="M553.2,23.1H550l-2.1-4.3h-1.7v4.3h-3V10.5h7c1.7,0,2.5,0.8,2.5,2.5v3.2c0,1.4-0.6,2.2-1.7,2.4L553.2,23.1z M549.4,16.3
			c0.3,0,0.3-0.1,0.3-0.3v-2.6c0-0.3-0.1-0.3-0.3-0.3h-3.2v3.2H549.4z"/>
		<path d="M554.6,15.9l2-1.8l-2.7-0.2l0.6-2.1l2.4,1.4l-0.6-2.6h2.2l-0.6,2.6l2.3-1.4l0.7,2.1l-2.7,0.3l2,1.8l-1.8,1.3l-1.1-2.5
			l-1,2.5L554.6,15.9z"/>
	</g>
	<g>
		<g>
			<path d="M597.1,20.6V13c0-1.7,0.8-2.5,2.5-2.5h4.5c1.7,0,2.5,0.8,2.5,2.5v2.2h-3v-1.7c0-0.3-0.1-0.3-0.3-0.3h-2.8
				c-0.3,0-0.3,0.1-0.3,0.3v6.7c0,0.3,0.1,0.3,0.3,0.3h2.8c0.3,0,0.3-0.1,0.3-0.3v-1.8h3v2.2c0,1.7-0.8,2.5-2.5,2.5h-4.5
				C597.9,23.1,597.1,22.3,597.1,20.6z"/>
			<path d="M615.1,20.5h-4l-0.7,2.7h-3.1l3.8-12.6h4.1l3.8,12.6h-3.2L615.1,20.5z M614.4,17.9l-1.3-4.9l-1.3,4.9H614.4z"/>
			<path d="M620.5,10.5h3v10h5.2v2.6h-8.2V10.5z"/>
			<path d="M630.4,10.5h3v10h5.2v2.6h-8.2V10.5z"/>
			<path d="M644.3,10.5h3l4.4,7.4v-7.4h2.9v12.6h-2.8l-4.7-7.8v7.8h-2.9V10.5z"/>
			<path d="M657,20.6V13c0-1.7,0.8-2.5,2.5-2.5h4.8c1.7,0,2.5,0.8,2.5,2.5v7.6c0,1.7-0.8,2.5-2.5,2.5h-4.8
				C657.8,23.1,657,22.3,657,20.6z M663.5,20.5c0.3,0,0.3-0.1,0.3-0.3v-6.7c0-0.3-0.1-0.3-0.3-0.3h-3.2c-0.3,0-0.3,0.1-0.3,0.3v6.7
				c0,0.3,0.1,0.3,0.3,0.3H663.5z"/>
			<path d="M667.8,10.5h3l1.7,8.9l2.2-8.9h2.7l2.2,8.9l1.7-8.9h2.9l-3,12.6H678l-1.9-8l-2,8h-3.2L667.8,10.5z"/>
		</g>
		<g id="volume-control-phone_1_">
			<path d="M587.1,22.5c0-0.1-0.2-0.2-0.4-0.5s-0.5-0.5-0.8-0.8c-0.3-0.3-0.5-0.5-0.5-0.5c0,0-0.1-0.1-0.2-0.2
				c-0.1-0.1-0.2-0.2-0.3-0.3c-0.1-0.1-0.2-0.1-0.2-0.1c-0.1,0-0.3,0-0.5,0.1c-0.1,0.1-0.3,0.2-0.6,0.4s-0.5,0.3-0.6,0.4
				c-0.2,0.1-0.4,0.2-0.5,0.1c-0.1,0-0.1,0-0.2-0.1c-0.1,0-0.1-0.1-0.2-0.1c0,0-0.1-0.1-0.2-0.2c-0.1-0.1-0.1-0.1-0.1-0.1
				c-0.7-0.6-1.2-1.3-1.6-2.1c-0.4-0.8-0.8-1.6-1-2.5c0,0,0-0.1-0.1-0.2c0-0.1,0-0.2-0.1-0.2c0-0.1,0-0.1,0-0.2c0-0.1,0-0.1,0-0.2
				c0-0.1,0.2-0.2,0.4-0.3c0.1-0.1,0.4-0.2,0.7-0.3c0.3-0.1,0.5-0.2,0.7-0.3c0.2-0.1,0.3-0.3,0.4-0.4c0-0.1,0-0.2,0-0.3
				s-0.1-0.2-0.1-0.4c-0.1-0.1-0.1-0.2-0.1-0.3c0-0.1-0.1-0.3-0.2-0.7c-0.1-0.4-0.2-0.8-0.3-1.1s-0.1-0.5-0.2-0.6
				c-0.1-0.1-0.3-0.2-0.7-0.2c-0.4,0-0.7,0-0.9,0c-0.1,0-0.3,0.1-0.4,0.2c-0.2,0.1-0.5,0.3-0.8,0.7c-0.3,0.3-0.5,0.6-0.7,0.9
				s-0.3,0.6-0.3,1c0,0.4-0.1,0.7,0,0.9s0,0.6,0.1,1.1c0,0.1,0,0.2,0,0.2c0.1,0.8,0.2,1.6,0.5,2.3c0.3,0.7,0.6,1.5,1.1,2.3
				c0.5,0.8,0.9,1.5,1.4,2.1s1.1,1.1,1.7,1.6c0.8,0.5,1.3,0.9,1.6,1c0.7,0.3,1.4,0.4,2.3,0.2l0.1,0c0.4-0.1,0.8-0.2,1-0.3
				c0.1-0.1,0.3-0.2,0.4-0.3c0.1-0.2,0.3-0.4,0.5-0.8C587.1,22.9,587.2,22.6,587.1,22.5z M583.8,13.5c-0.2,0.1-0.3,0.1-0.5,0.1
				c-0.2,0-0.3-0.2-0.4-0.3c-0.1-0.2-0.1-0.3-0.1-0.5c0.1-0.3,0-0.7-0.1-1c-0.2-0.3-0.4-0.5-0.8-0.6c-0.2,0-0.3-0.1-0.4-0.3
				c-0.1-0.2-0.1-0.3-0.1-0.5s0.1-0.3,0.3-0.4c0.2-0.1,0.3-0.1,0.5-0.1c0.7,0.2,1.2,0.6,1.6,1.2s0.5,1.3,0.3,2
				C584,13.3,583.9,13.4,583.8,13.5z M586.3,14.2c-0.2,0.1-0.3,0.1-0.5,0.1c-0.2,0-0.3-0.1-0.4-0.3c-0.1-0.2-0.1-0.3-0.1-0.5
				c0.3-1.1,0.1-2.1-0.4-3c-0.5-0.9-1.3-1.6-2.4-1.9c-0.2,0-0.3-0.1-0.4-0.3c-0.1-0.2-0.1-0.3-0.1-0.5c0-0.2,0.1-0.3,0.3-0.4
				s0.3-0.1,0.5-0.1c1.4,0.4,2.5,1.2,3.2,2.5s0.9,2.6,0.5,4C586.6,14,586.5,14.1,586.3,14.2z M588.9,14.9c-0.2,0.1-0.3,0.1-0.5,0.1
				c-0.2,0-0.3-0.1-0.4-0.3c-0.1-0.2-0.1-0.3-0.1-0.5c0.2-0.9,0.3-1.7,0.2-2.6c-0.1-0.9-0.4-1.7-0.8-2.4c-0.4-0.8-1-1.4-1.7-1.9
				c-0.7-0.5-1.5-0.9-2.3-1.1c-0.2,0-0.3-0.1-0.4-0.3c-0.1-0.2-0.1-0.3-0.1-0.5c0-0.2,0.1-0.3,0.3-0.4s0.3-0.1,0.5-0.1
				c1,0.3,2,0.7,2.8,1.4s1.5,1.4,2,2.3c0.5,0.9,0.9,1.9,1,2.9c0.1,1,0.1,2.1-0.2,3.1C589.2,14.7,589.1,14.8,588.9,14.9z"/>
		</g>
	</g>
</g>
</svg>
